<svg width="170" height="38" viewBox="0 0 170 38" fill="none" xmlns="http://www.w3.org/2000/svg">
<path d="M8.84863 21.4111H4.13867V18.4404H8.84863C9.5765 18.4404 10.1689 18.3219 10.626 18.085C11.083 17.8395 11.4173 17.501 11.6289 17.0693C11.8405 16.6377 11.9463 16.151 11.9463 15.6094C11.9463 15.0592 11.8405 14.5472 11.6289 14.0732C11.4173 13.5993 11.083 13.2184 10.626 12.9307C10.1689 12.6429 9.5765 12.499 8.84863 12.499H5.45898V28H1.65039V9.51562H8.84863C10.2959 9.51562 11.5358 9.77799 12.5684 10.3027C13.6094 10.819 14.4049 11.5342 14.9551 12.4482C15.5052 13.3623 15.7803 14.4076 15.7803 15.584C15.7803 16.7773 15.5052 17.8099 14.9551 18.6816C14.4049 19.5534 13.6094 20.2262 12.5684 20.7002C11.5358 21.1742 10.2959 21.4111 8.84863 21.4111ZM29.123 21.8682H32.9189C32.8428 23.1123 32.5 24.2168 31.8906 25.1816C31.2897 26.1465 30.4476 26.8997 29.3643 27.4414C28.2894 27.9831 26.9945 28.2539 25.4795 28.2539C24.2946 28.2539 23.2324 28.0508 22.293 27.6445C21.3535 27.2298 20.5495 26.6374 19.8809 25.8672C19.2207 25.097 18.7171 24.166 18.3701 23.0742C18.0231 21.9824 17.8496 20.7594 17.8496 19.4053V18.123C17.8496 16.7689 18.0273 15.5459 18.3828 14.4541C18.7467 13.3538 19.263 12.4186 19.9316 11.6484C20.6087 10.8783 21.417 10.2858 22.3564 9.87109C23.2959 9.45638 24.3454 9.24902 25.5049 9.24902C27.0452 9.24902 28.3444 9.52832 29.4023 10.0869C30.4688 10.6455 31.2939 11.4157 31.8779 12.3975C32.4704 13.3792 32.8258 14.4964 32.9443 15.749H29.1357C29.0934 15.0042 28.9453 14.3737 28.6914 13.8574C28.4375 13.3327 28.0524 12.9391 27.5361 12.6768C27.0283 12.4059 26.3512 12.2705 25.5049 12.2705C24.8701 12.2705 24.3158 12.389 23.8418 12.626C23.3678 12.863 22.9701 13.2227 22.6484 13.7051C22.3268 14.1875 22.0856 14.7969 21.9248 15.5332C21.7725 16.2611 21.6963 17.1159 21.6963 18.0977V19.4053C21.6963 20.3617 21.7682 21.2038 21.9121 21.9316C22.056 22.651 22.276 23.2604 22.5723 23.7598C22.877 24.2507 23.2663 24.623 23.7402 24.877C24.2227 25.1224 24.8024 25.2451 25.4795 25.2451C26.2751 25.2451 26.931 25.1182 27.4473 24.8643C27.9635 24.6104 28.3571 24.2337 28.6279 23.7344C28.9072 23.235 29.0723 22.613 29.123 21.8682ZM42.6562 19.8877H37.9082L37.8828 17.2725H41.8691C42.5716 17.2725 43.1471 17.1836 43.5957 17.0059C44.0443 16.8197 44.3786 16.5531 44.5986 16.2061C44.8271 15.8506 44.9414 15.4189 44.9414 14.9111C44.9414 14.3356 44.8314 13.8701 44.6113 13.5146C44.3997 13.1592 44.0654 12.901 43.6084 12.7402C43.1598 12.5794 42.5801 12.499 41.8691 12.499H39.2285V28H35.4199V9.51562H41.8691C42.944 9.51562 43.9046 9.61719 44.751 9.82031C45.6058 10.0234 46.3294 10.3324 46.9219 10.7471C47.5143 11.1618 47.9671 11.6865 48.2803 12.3213C48.5934 12.9476 48.75 13.6924 48.75 14.5557C48.75 15.3174 48.5765 16.0199 48.2295 16.6631C47.891 17.3063 47.3535 17.8311 46.6172 18.2373C45.8893 18.6436 44.9372 18.8678 43.7607 18.9102L42.6562 19.8877ZM42.4912 28H36.8672L38.3525 25.0293H42.4912C43.1598 25.0293 43.7057 24.9235 44.1289 24.7119C44.5521 24.4919 44.8652 24.1956 45.0684 23.8232C45.2715 23.4508 45.373 23.0234 45.373 22.541C45.373 21.9993 45.2799 21.5296 45.0938 21.1318C44.916 20.734 44.6283 20.4294 44.2305 20.2178C43.8327 19.9977 43.3079 19.8877 42.6562 19.8877H38.9873L39.0127 17.2725H43.583L44.459 18.3008C45.5846 18.2839 46.4902 18.4827 47.1758 18.8975C47.8698 19.3037 48.3734 19.8327 48.6865 20.4844C49.0081 21.1361 49.1689 21.8343 49.1689 22.5791C49.1689 23.764 48.9108 24.7627 48.3945 25.5752C47.8783 26.3792 47.1208 26.9844 46.1221 27.3906C45.1318 27.7969 43.9215 28 42.4912 28ZM62.2324 9.51562H66.0283V21.7285C66.0283 23.1504 65.7236 24.348 65.1143 25.3213C64.5133 26.2946 63.6797 27.0267 62.6133 27.5176C61.5553 28.0085 60.3366 28.2539 58.957 28.2539C57.5775 28.2539 56.3503 28.0085 55.2754 27.5176C54.209 27.0267 53.3711 26.2946 52.7617 25.3213C52.1608 24.348 51.8604 23.1504 51.8604 21.7285V9.51562H55.6689V21.7285C55.6689 22.5579 55.8001 23.235 56.0625 23.7598C56.3249 24.2845 56.7015 24.6696 57.1924 24.915C57.6917 25.1605 58.2799 25.2832 58.957 25.2832C59.651 25.2832 60.2393 25.1605 60.7217 24.915C61.2126 24.6696 61.585 24.2845 61.8389 23.7598C62.1012 23.235 62.2324 22.5579 62.2324 21.7285V9.51562ZM73.2139 9.51562V28H69.418V9.51562H73.2139ZM88.6641 25.0293V28H79.3584V25.0293H88.6641ZM80.5898 9.51562V28H76.7812V9.51562H80.5898ZM96.5225 28H92.498L92.5234 25.0293H96.5225C97.5212 25.0293 98.3633 24.805 99.0488 24.3564C99.7344 23.8994 100.251 23.235 100.598 22.3633C100.953 21.4915 101.131 20.4378 101.131 19.2021V18.3008C101.131 17.3529 101.029 16.5192 100.826 15.7998C100.632 15.0804 100.34 14.4753 99.9502 13.9844C99.5609 13.4935 99.0827 13.1253 98.5156 12.8799C97.9486 12.626 97.2969 12.499 96.5605 12.499H92.4219V9.51562H96.5605C97.7962 9.51562 98.9261 9.72721 99.9502 10.1504C100.983 10.5651 101.876 11.1618 102.629 11.9404C103.382 12.7191 103.962 13.6501 104.368 14.7334C104.783 15.8083 104.99 17.0059 104.99 18.3262V19.2021C104.99 20.514 104.783 21.7116 104.368 22.7949C103.962 23.8783 103.382 24.8092 102.629 25.5879C101.884 26.3581 100.991 26.9548 99.9502 27.3779C98.9176 27.7926 97.7751 28 96.5225 28ZM94.6562 9.51562V28H90.8477V9.51562H94.6562ZM120.161 25.0293V28H110.322V25.0293H120.161ZM111.566 9.51562V28H107.758V9.51562H111.566ZM118.879 17.0439V19.9385H110.322V17.0439H118.879ZM120.148 9.51562V12.499H110.322V9.51562H120.148ZM122.383 9.51562H129.276C130.69 9.51562 131.904 9.72721 132.92 10.1504C133.944 10.5736 134.731 11.1999 135.281 12.0293C135.831 12.8587 136.106 13.8786 136.106 15.0889C136.106 16.0791 135.937 16.9297 135.599 17.6406C135.269 18.3431 134.799 18.9313 134.189 19.4053C133.589 19.8708 132.882 20.2432 132.069 20.5225L130.863 21.1572H124.871L124.846 18.1865H129.302C129.97 18.1865 130.525 18.068 130.965 17.8311C131.405 17.5941 131.735 17.264 131.955 16.8408C132.184 16.4176 132.298 15.9268 132.298 15.3682C132.298 14.7757 132.188 14.2637 131.968 13.832C131.748 13.4004 131.413 13.0703 130.965 12.8418C130.516 12.6133 129.953 12.499 129.276 12.499H126.191V28H122.383V9.51562ZM132.717 28L128.502 19.7607L132.526 19.7354L136.792 27.8223V28H132.717Z" fill="#E2FCEF"/>
<g clip-path="url(#clip0_1_25)">
<path d="M143.875 0C143.245 0 142.641 0.250223 142.196 0.695621C141.75 1.14102 141.5 1.74511 141.5 2.375V35.625C141.5 36.2549 141.75 36.859 142.196 37.3044C142.641 37.7498 143.245 38 143.875 38H158.125C158.755 38 159.359 37.7498 159.804 37.3044C160.25 36.859 160.5 36.2549 160.5 35.625V2.375C160.5 1.74511 160.25 1.14102 159.804 0.695621C159.359 0.250223 158.755 0 158.125 0L143.875 0ZM145.062 33.25C145.377 33.25 145.679 33.3751 145.902 33.5978C146.125 33.8205 146.25 34.1226 146.25 34.4375C146.25 34.7524 146.125 35.0545 145.902 35.2772C145.679 35.4999 145.377 35.625 145.062 35.625C144.748 35.625 144.446 35.4999 144.223 35.2772C144 35.0545 143.875 34.7524 143.875 34.4375C143.875 34.1226 144 33.8205 144.223 33.5978C144.446 33.3751 144.748 33.25 145.062 33.25ZM149.812 33.25C150.127 33.25 150.429 33.3751 150.652 33.5978C150.875 33.8205 151 34.1226 151 34.4375C151 34.7524 150.875 35.0545 150.652 35.2772C150.429 35.4999 150.127 35.625 149.812 35.625C149.498 35.625 149.196 35.4999 148.973 35.2772C148.75 35.0545 148.625 34.7524 148.625 34.4375C148.625 34.1226 148.75 33.8205 148.973 33.5978C149.196 33.3751 149.498 33.25 149.812 33.25ZM143.875 3.5625C143.875 3.24756 144 2.94551 144.223 2.72281C144.446 2.50011 144.748 2.375 145.062 2.375H156.938C157.252 2.375 157.554 2.50011 157.777 2.72281C158 2.94551 158.125 3.24756 158.125 3.5625C158.125 3.87744 158 4.17949 157.777 4.40219C157.554 4.62489 157.252 4.75 156.938 4.75H145.062C144.748 4.75 144.446 4.62489 144.223 4.40219C144 4.17949 143.875 3.87744 143.875 3.5625ZM145.062 7.125H156.938C157.252 7.125 157.554 7.25011 157.777 7.47281C158 7.69551 158.125 7.99756 158.125 8.3125C158.125 8.62744 158 8.92949 157.777 9.15219C157.554 9.37489 157.252 9.5 156.938 9.5H145.062C144.748 9.5 144.446 9.37489 144.223 9.15219C144 8.92949 143.875 8.62744 143.875 8.3125C143.875 7.99756 144 7.69551 144.223 7.47281C144.446 7.25011 144.748 7.125 145.062 7.125Z" fill="#E2FCEF"/>
</g>
<defs>
<clipPath id="clip0_1_25">
<rect width="38" height="38" fill="white" transform="translate(132)"/>
</clipPath>
</defs>
</svg>
